<?xml version="1.0" encoding="utf-8"?>
<svg xmlns="http://www.w3.org/2000/svg" width="480px" height="912px" preserveAspectRatio="none" viewBox="0 0 625 647">
  <defs>
    <linearGradient id="grad0-19" x1="0" y1="387.56957" x2="257.6408" y2="387.56957" gradientTransform="scale(0.94329002,1.0601193)" gradientUnits="userSpaceOnUse">
      <stop offset="0" stop-color="#ffffff" stop-opacity="1" id="stop1"/>
      <stop offset="1" stop-color="#08dc5a" stop-opacity="1" id="stop2"/>
    </linearGradient>
    <style type="text/css" id="style1">
	
    /* latin */
    @font-face {
      font-family: 'Russo One';
      font-style: normal;
      font-weight: 400;
      src: url(https://fonts.gstatic.com/s/russoone/v17/Z9XUDmZRWg6M1LvRYsHOz8mJ.woff2) format('woff2');
      unicode-range: U+0000-00FF, U+0131, U+0152-0153, U+02BB-02BC, U+02C6, U+02DA, U+02DC, U+0304, U+0308, U+0329, U+2000-206F, U+20AC, U+2122, U+2191, U+2193, U+2212, U+2215, U+FEFF, U+FFFD;
    }
		.st2 {fill:none;stroke:none;stroke-linecap:round;stroke-linejoin:round;stroke-width:0.75}
		.st3 {fill:#3f3f3f;font-family:Russo One;font-size:50em}
		.st4 {font-size:0.8em}
		.st5 {fill:#d1d5db;fill-opacity:0.75;stroke:#121a36;stroke-linecap:butt;stroke-width:1.75781}
		.st6 {fill:none;stroke:#121a36;stroke-linecap:butt;stroke-opacity:0.85;stroke-width:25.1151}
		.st7 {fill:#6b7280;fill-opacity:0.6;stroke:none;stroke-linecap:butt;stroke-width:0.292969}
		.st8 {fill:url(#grad0-19);stroke:none;stroke-linecap:butt;stroke-width:0.131836}
		.st9 {fill:#08dc5a;fill-opacity:0.059;stroke:none;stroke-linecap:butt;stroke-width:0.131836}
		.st10 {fill:#121a36;stroke:none;stroke-linecap:butt;stroke-width:0.131836}
		.st11 {fill:#3f3f3f;font-family:Russo One;font-size:16.6667em}
		.st12 {font-size:0.799999em}
		.st13 {fill:none;fill-rule:evenodd;font-size:12px;overflow:visible;stroke-linecap:square;stroke-miterlimit:3}
	
	</style>
  </defs>
  <g id="group5-8" transform="matrix(1, 0, 0, 1, 24.119438, -60.288414)" style="transform-origin: 295.881px 381.32px;">
    <title id="title6">Sheet.5</title>
    <g id="shape6-9">
      <title id="title7">Sheet.6</title>
      <path d="m 288,81 c 5.52,0 11.04,1.18 16.07,3.42 l 225.87,94.25 c 26.39,10.97 46.06,36.57 45.94,67.47 -0.6,117.01 -49.54,331.11 -256.21,428.42 -20.03,9.44 -43.31,9.44 -63.34,0 C 49.66,577.25 0.72,363.15 0.12,246.14 0,215.24 19.67,189.64 46.06,178.67 L 272.05,84.42 C 276.96,82.18 282.48,81 288,81 Z" class="st5" id="path7"/>
    </g>
    <g id="shape7-11">
      <title id="title8">Sheet.7</title>
      <path d="m 288,81 c 5.52,0 11.04,1.18 16.07,3.42 l 225.87,94.25 c 26.39,10.97 46.06,36.57 45.94,67.47 -0.6,117.01 -49.54,331.11 -256.21,428.42 -20.03,9.44 -43.31,9.44 -63.34,0 C 49.66,577.25 0.72,363.15 0.12,246.14 0,215.24 19.67,189.64 46.06,178.67 L 272.05,84.42 C 276.96,82.18 282.48,81 288,81 Z" class="st6" id="path8"/>
    </g>
    <g id="shape8-13" transform="translate(288,-4.71831)">
      <title id="title9">Sheet.8</title>
      <path d="m 16.07,89.14 225.87,94.25 c 26.39,10.97 46.06,36.56 45.94,67.47 C 287.28,367.87 238.34,581.97 31.67,679.28 21.59,684 10.08,684 0,679.28 V 85.72 c 5.52,0 11.04,1.18 16.07,3.42 z" class="st7" id="path9"/>
    </g>
  </g>
  <g id="group9-15" transform="matrix(1, 0, 0, 1, 168.849838, -175.375702)" style="transform-origin: 151.15px 496.407px;">
    <title id="title10">Sheet.9</title>
    <g id="shape10-16" transform="translate(53.1935,-34.1417)">
      <title id="title11">Sheet.10</title>
      <path d="m 0,654.13 c 9.61,0 17.36,-7.62 17.36,-17.07 V 496.22 c 0,-20.97 1.12,-36.64 3.66,-48.41 2.54,-11.58 6.26,-18.35 10.78,-22.74 4.53,-4.39 11.35,-8.11 23.13,-10.61 11.96,-2.56 27.9,-3.59 49.23,-3.59 h 34.71 c 21.33,0 37.26,1.09 49.23,3.59 11.78,2.5 18.66,6.16 23.12,10.61 4.47,4.45 8.25,11.16 10.79,22.74 2.61,11.77 3.66,27.44 3.66,48.41 v 140.84 c 0,9.45 7.75,17.07 17.36,17.07 v 25.05 c -20.21,1.83 -40.49,3.05 -60.76,3.78 -10.17,0.37 -20.27,0.61 -30.44,0.8 -10.1,0.18 -20.21,0.24 -30.32,0.24 C 81.15,684 40.36,682.9 0,679.18 Z m 138.87,-98.16 c 0,14.14 11.66,25.6 26.04,25.6 14.39,0 26.04,-11.46 26.04,-25.6 0,-14.15 -11.65,-25.61 -26.04,-25.61 -14.38,0 -26.04,11.46 -26.04,25.61 z" class="st8" id="path11" style="fill:url(#grad0-19)"/>
    </g>
    <g id="shape11-20" transform="translate(53.1935,-34.1417)">
      <title id="title12">Sheet.11</title>
      <path d="m 0,654.13 c 9.61,0 17.36,-7.62 17.36,-17.07 V 496.22 c 0,-20.97 1.12,-36.64 3.66,-48.41 2.54,-11.58 6.26,-18.35 10.78,-22.74 4.53,-4.39 11.35,-8.11 23.13,-10.61 11.96,-2.56 27.9,-3.59 49.23,-3.59 h 34.71 c 21.33,0 37.26,1.09 49.23,3.59 11.78,2.5 18.66,6.16 23.12,10.61 4.47,4.45 8.25,11.16 10.79,22.74 2.61,11.77 3.66,27.44 3.66,48.41 v 140.84 c 0,9.45 7.75,17.07 17.36,17.07 v 25.05 c -20.21,1.83 -40.49,3.05 -60.76,3.78 -10.17,0.37 -20.27,0.61 -30.44,0.8 -10.1,0.18 -20.21,0.24 -30.32,0.24 C 81.15,684 40.36,682.9 0,679.18 Z m 138.87,-98.16 c 0,14.14 11.66,25.6 26.04,25.6 14.39,0 26.04,-11.46 26.04,-25.6 0,-14.15 -11.65,-25.61 -26.04,-25.61 -14.38,0 -26.04,11.46 -26.04,25.61 z" class="st9" id="path12"/>
    </g>
    <g id="shape12-22">
      <title id="title13">Sheet.12</title>
      <path d="m 100.81,346.97 c 15.68,-3.35 34.47,-4.39 56.54,-4.39 h 34.72 c 22.07,0 40.85,1.04 56.54,4.39 15.87,3.36 29.63,9.27 40.36,19.82 10.72,10.54 16.74,24.08 20.15,39.69 3.41,15.42 4.46,33.96 4.46,55.6 v 140.83 c 0,9.45 -7.75,17.07 -17.36,17.07 -9.61,0 -17.36,-7.62 -17.36,-17.07 V 462.08 c 0,-20.97 -1.11,-36.64 -3.66,-48.41 -2.54,-11.58 -6.26,-18.35 -10.78,-22.74 -4.53,-4.39 -11.35,-8.11 -23.13,-10.61 -11.96,-2.56 -27.9,-3.6 -49.22,-3.6 h -34.72 c -21.33,0 -37.26,1.1 -49.23,3.6 -11.78,2.5 -18.66,6.16 -23.12,10.61 -4.47,4.45 -8.25,11.16 -10.79,22.74 -2.6,11.77 -3.66,27.44 -3.66,48.41 v 140.83 c 0,9.45 -7.75,17.07 -17.36,17.07 -9.61,0 -17.36,-7.62 -17.36,-17.07 V 462.08 c 0,-21.71 1.06,-40.18 4.47,-55.6 3.41,-15.61 9.42,-29.15 20.15,-39.69 10.72,-10.55 24.49,-16.46 40.36,-19.82 z m 117.3,200.46 c 14.38,0 26.03,-11.46 26.03,-25.6 0,-14.15 -11.65,-25.61 -26.03,-25.61 -14.39,0 -26.04,11.46 -26.04,25.61 0,14.14 11.65,25.6 26.04,25.6 z M 1.24,656.14 c 1.24,-9.33 9.98,-15.91 19.53,-14.7 50.84,6.59 102.73,8.42 153.94,8.42 51.21,0 103.1,-1.77 153.94,-8.42 9.48,-1.21 18.22,5.31 19.46,14.7 1.24,9.39 -5.39,17.92 -14.94,19.2 C 280.85,682.11 227.47,684 174.71,684 121.95,684 68.57,682.11 16.18,675.34 6.7,674.06 0,665.47 1.24,656.14 Z" class="st10" id="path13"/>
    </g>
  </g>
</svg>