<?xml version="1.0" encoding="utf-8"?>
<svg width="9.5in" height="9.5in" viewBox="-60 25 561 615" color-interpolation-filters="sRGB" class="st13" version="1.1" id="svg16" xmlns="http://www.w3.org/2000/svg">
  <style type="text/css" id="style1">
	
    /* latin */
		.st2 {fill:#d1d5db;fill-opacity:0.75;stroke:#121a36;stroke-linecap:butt;stroke-width:1.75781}
		.st3 {fill:none;stroke:#121a36;stroke-linecap:butt;stroke-opacity:0.85;stroke-width:25.1151}
		.st4 {fill:#6b7280;fill-opacity:0.6;stroke:none;stroke-linecap:butt;stroke-width:0.292969}
		.st5 {fill:url(#grad0-15);stroke:none;stroke-linecap:butt;stroke-width:0.131836}
		.st6 {fill:#08dc5a;fill-opacity:0.059;stroke:none;stroke-linecap:butt;stroke-width:0.131836}
		.st7 {fill:#121a36;stroke:none;stroke-linecap:butt;stroke-width:0.131836}
		.st8 {fill:none;stroke:none;stroke-linecap:round;stroke-linejoin:round;stroke-width:0.75}
		.st9 {fill:#f2f2f2;font-family:Russo One;font-size:50em}
		.st10 {font-size:0.8em}
		.st11 {fill:#f2f2f2;font-family:Russo One;font-size:16.6667em}
		.st12 {font-size:0.799999em}
		.st13 {fill:none;fill-rule:evenodd;font-size:12px;overflow:visible;stroke-linecap:square;stroke-miterlimit:3}

		.st2 {fill:#e3e3e3;stroke:none;stroke-linecap:butt;stroke-width:25.5}
		.st3 {fill:#ffffff;stroke:none;stroke-linecap:butt;stroke-width:25.5}
		.st4 {fill:#002567;stroke:none;stroke-linecap:butt;stroke-width:25.5}
		.st5 {fill:#78eb7b;stroke:none;stroke-linecap:butt;stroke-width:25.5}
		.st6 {fill:#c9f7ca;stroke:none;stroke-linecap:butt;stroke-width:25.5}
		.st8 {fill:#e3e3e3}
	
	</style>
  <defs id="Patterns_And_Gradients">
    <linearGradient id="grad0-15" x1="0" y1="387.56957" x2="257.6408" y2="387.56957" gradientTransform="scale(0.94329002,1.0601193)" gradientUnits="userSpaceOnUse">
      <stop offset="0" stop-color="#ffffff" stop-opacity="1" id="stop1"/>
      <stop offset="1" stop-color="#08dc5a" stop-opacity="1" id="stop2"/>
    </linearGradient>
  </defs>
  <g xmlns="http://www.w3.org/2000/svg" id="group10-4" transform="matrix(1, 0, 0, 1, -61.697021, -46.053448)">
    <title id="title4">Sheet.10</title>
    <g id="shape11-5" transform="translate(12.75,-10.2)">
      <title id="title5">Sheet.11</title>
      <path d="m 0,179.1 v 193.8 c 2.55,132.6 84.15,249.9 209.1,293.25 l 28.05,10.2 c 17.85,7.65 40.8,7.65 58.65,0 l 28.05,-10.2 C 448.8,622.8 532.95,505.5 532.95,372.9 V 179.1 c 0,-15.3 -10.2,-30.6 -22.95,-35.7 C 433.5,110.25 349.35,94.95 265.2,94.95 181.05,94.95 99.45,110.25 20.4,143.4 10.2,148.5 0,163.8 0,179.1 Z" class="st2" id="path5"/>
    </g>
    <g id="shape12-7" transform="translate(12.75,-12.75)">
      <title id="title6">Sheet.12</title>
      <path d="M 267.75,97.5 C 183.6,97.5 102,112.8 22.95,145.95 10.2,151.05 0,166.35 0,181.65 v 193.8 c 2.55,132.6 84.15,249.9 209.1,293.25 l 28.05,10.2 c 10.2,2.55 20.4,5.1 30.6,5.1 z" class="st3" id="path6"/>
    </g>
    <g id="shape13-9">
      <title id="title7">Sheet.13</title>
      <path d="M 280.5 684 C 267.75 684 257.55 681.45 247.35 678.9 L 219.3 668.7 C 91.8 622.8 2.55 500.4 2.55 365.25 L 2.724 168.9 C 0.733 148.5 12.75 128.1 30.6 120.45 C 112.2 87.3 193.8 72 280.5 72 C 367.2 72 448.8 87.3 530.4 120.45 C 548.25 128.1 561 148.5 561 168.9 L 561 362.7 C 558.45 500.4 471.75 622.8 341.7 666.15 L 313.65 676.35 C 303.45 681.45 293.25 684 280.5 684 Z M 25.5 168.9 L 25.5 362.7 C 28.05 487.65 107.1 602.4 226.95 643.2 L 255 653.4 C 270.3 658.5 288.15 658.5 306 653.4 L 334.05 643.2 C 453.9 602.4 532.95 487.65 535.5 362.7 L 535.5 168.9 C 535.5 158.7 530.4 148.5 520.2 145.95 C 443.7 112.8 362.1 97.5 280.5 97.5 C 198.9 97.5 117.3 112.8 40.8 143.4 C 30.6 148.5 25.5 158.7 25.5 168.9 Z" class="st4" id="path7" style="fill-opacity: 1;"/>
    </g>
    <g id="group104-11" transform="translate(110,-150)">
      <title id="title9">Sheet.104</title>
      <g id="shape101-12" transform="translate(53.1935,-34.1417)">
        <title id="title10">Sheet.101</title>
        <path d="m 0,654.13 c 9.61,0 17.36,-7.62 17.36,-17.07 V 496.22 c 0,-20.97 1.12,-36.64 3.66,-48.41 2.54,-11.58 6.26,-18.35 10.78,-22.74 4.53,-4.39 11.35,-8.11 23.13,-10.61 11.96,-2.56 27.9,-3.59 49.23,-3.59 h 34.71 c 21.33,0 37.26,1.09 49.23,3.59 11.78,2.5 18.66,6.16 23.12,10.61 4.47,4.45 8.25,11.16 10.79,22.74 2.61,11.77 3.66,27.44 3.66,48.41 v 140.84 c 0,9.45 7.75,17.07 17.36,17.07 v 25.05 c -20.21,1.83 -40.49,3.05 -60.76,3.78 -10.17,0.37 -20.27,0.61 -30.44,0.8 -10.1,0.18 -20.21,0.24 -30.32,0.24 C 81.15,684 40.36,682.9 0,679.18 Z m 138.87,-98.16 c 0,14.14 11.66,25.6 26.04,25.6 14.39,0 26.04,-11.46 26.04,-25.6 0,-14.15 -11.65,-25.61 -26.04,-25.61 -14.38,0 -26.04,11.46 -26.04,25.61 z" class="st5" id="path10" style="fill:url(#grad0-15)"/>
      </g>
      <g id="shape102-16" transform="translate(53.1935,-34.1417)">
        <title id="title11">Sheet.102</title>
        <path d="m 0,654.13 c 9.61,0 17.36,-7.62 17.36,-17.07 V 496.22 c 0,-20.97 1.12,-36.64 3.66,-48.41 2.54,-11.58 6.26,-18.35 10.78,-22.74 4.53,-4.39 11.35,-8.11 23.13,-10.61 11.96,-2.56 27.9,-3.59 49.23,-3.59 h 34.71 c 21.33,0 37.26,1.09 49.23,3.59 11.78,2.5 18.66,6.16 23.12,10.61 4.47,4.45 8.25,11.16 10.79,22.74 2.61,11.77 3.66,27.44 3.66,48.41 v 140.84 c 0,9.45 7.75,17.07 17.36,17.07 v 25.05 c -20.21,1.83 -40.49,3.05 -60.76,3.78 -10.17,0.37 -20.27,0.61 -30.44,0.8 -10.1,0.18 -20.21,0.24 -30.32,0.24 C 81.15,684 40.36,682.9 0,679.18 Z m 138.87,-98.16 c 0,14.14 11.66,25.6 26.04,25.6 14.39,0 26.04,-11.46 26.04,-25.6 0,-14.15 -11.65,-25.61 -26.04,-25.61 -14.38,0 -26.04,11.46 -26.04,25.61 z" class="st6" id="path11"/>
      </g>
      <g id="shape103-18">
        <title id="title12">Sheet.103</title>
        <path d="m 100.81,346.97 c 15.68,-3.35 34.47,-4.39 56.54,-4.39 h 34.72 c 22.07,0 40.85,1.04 56.54,4.39 15.87,3.36 29.63,9.27 40.36,19.82 10.72,10.54 16.74,24.08 20.15,39.69 3.41,15.42 4.46,33.96 4.46,55.6 v 140.83 c 0,9.45 -7.75,17.07 -17.36,17.07 -9.61,0 -17.36,-7.62 -17.36,-17.07 V 462.08 c 0,-20.97 -1.11,-36.64 -3.66,-48.41 -2.54,-11.58 -6.26,-18.35 -10.78,-22.74 -4.53,-4.39 -11.35,-8.11 -23.13,-10.61 -11.96,-2.56 -27.9,-3.6 -49.22,-3.6 h -34.72 c -21.33,0 -37.26,1.1 -49.23,3.6 -11.78,2.5 -18.66,6.16 -23.12,10.61 -4.47,4.45 -8.25,11.16 -10.79,22.74 -2.6,11.77 -3.66,27.44 -3.66,48.41 v 140.83 c 0,9.45 -7.75,17.07 -17.36,17.07 -9.61,0 -17.36,-7.62 -17.36,-17.07 V 462.08 c 0,-21.71 1.06,-40.18 4.47,-55.6 3.41,-15.61 9.42,-29.15 20.15,-39.69 10.72,-10.55 24.49,-16.46 40.36,-19.82 z m 117.3,200.46 c 14.38,0 26.03,-11.46 26.03,-25.6 0,-14.15 -11.65,-25.61 -26.03,-25.61 -14.39,0 -26.04,11.46 -26.04,25.61 0,14.14 11.65,25.6 26.04,25.6 z M 1.24,656.14 c 1.24,-9.33 9.98,-15.91 19.53,-14.7 50.84,6.59 102.73,8.42 153.94,8.42 51.21,0 103.1,-1.77 153.94,-8.42 9.48,-1.21 18.22,5.31 19.46,14.7 1.24,9.39 -5.39,17.92 -14.94,19.2 C 280.85,682.11 227.47,684 174.71,684 121.95,684 68.57,682.11 16.18,675.34 6.7,674.06 0,665.47 1.24,656.14 Z" class="st7" id="path12" style="fill: rgb(0, 37, 103);"/>
      </g>
    </g>
  </g>
</svg>