<?xml version="1.0" encoding="UTF-8"?>
<svg xmlns="http://www.w3.org/2000/svg" xmlns:xlink="http://www.w3.org/1999/xlink" id="Layer_1" width="280" height="147.85" viewBox="0 0 280 147.85">
  <defs>
    <style>.cls-1{fill:url(#linear-gradient);}.cls-1,.cls-2,.cls-3,.cls-4{stroke-width:0px;}.cls-2{fill:#022b6b;}.cls-3{fill:#fff;}.cls-4{fill:#67ce4d;}</style>
    <linearGradient id="linear-gradient" x1="227.21" y1="736.42" x2="159.95" y2="707.42" gradientTransform="translate(65.08 -711.12) rotate(8.36)" gradientUnits="userSpaceOnUse">
      <stop offset=".26" stop-color="#035ce6"></stop>
      <stop offset=".32" stop-color="#1478c0"></stop>
      <stop offset=".4" stop-color="#2ba08d"></stop>
      <stop offset=".48" stop-color="#3dbf64"></stop>
      <stop offset=".55" stop-color="#4bd547"></stop>
      <stop offset=".61" stop-color="#53e336"></stop>
      <stop offset=".66" stop-color="#56e830"></stop>
      <stop offset=".68" stop-color="#5ce058"></stop>
      <stop offset=".71" stop-color="#63d884"></stop>
      <stop offset=".73" stop-color="#6ad1aa"></stop>
      <stop offset=".76" stop-color="#6fcbc9"></stop>
      <stop offset=".79" stop-color="#73c7e0"></stop>
      <stop offset=".82" stop-color="#75c4f1"></stop>
      <stop offset=".85" stop-color="#77c2fb"></stop>
      <stop offset=".89" stop-color="#78c2ff"></stop>
    </linearGradient>
  </defs>
  <path class="cls-2" d="M0,77h9.32l11.1,18.8c.58,1.05,2.57,4.77,2.57,4.77h.1s-.1-4.5-.1-5.81v-17.75h9.06v37.44h-9.32l-11-18.54c-.63-1-2.67-5.03-2.67-5.03h-.1s.1,4.82.1,6.13v17.44H0v-37.44Z"></path>
  <path class="cls-2" d="M35.45,100.99c0-8.01,5.6-14.14,13.77-14.14,3.82,0,6.86,1.26,9.17,3.35,3.19,2.93,4.77,7.59,4.71,13.04h-19.27c.52,3.61,2.51,5.87,6.02,5.87,2.25,0,3.72-1,4.45-2.67h8.33c-.58,2.41-2.15,4.71-4.5,6.34-2.25,1.57-4.98,2.46-8.38,2.46-8.85,0-14.3-6.13-14.3-14.24ZM54.46,98.16c-.31-3.19-2.3-5.24-5.08-5.24-3.25,0-4.92,2.04-5.5,5.24h10.58Z"></path>
  <path class="cls-2" d="M67.55,107.38v-14.4h-3.56v-5.34h3.56v-8.48h8.33v8.48h4.87v5.34h-4.87v12.57c0,2.09,1.15,2.62,2.99,2.62.73,0,1.57-.05,1.89-.05v6.23c-.73.21-2.36.42-4.66.42-4.98,0-8.54-1.62-8.54-7.38Z"></path>
  <path class="cls-2" d="M84.36,77h27.86v7.8h-18.59v7.59h15.55v7.49h-15.55v14.56h-9.27v-37.44Z"></path>
  <path class="cls-2" d="M111.8,101.09c0-8.06,5.76-14.19,14.35-14.19s14.3,6.13,14.3,14.19-5.66,14.19-14.3,14.19-14.35-6.13-14.35-14.19ZM131.81,101.09c0-4.87-1.99-8.17-5.71-8.17s-5.66,3.3-5.66,8.17,1.94,8.12,5.66,8.12,5.71-3.25,5.71-8.12Z"></path>
  <path class="cls-2" d="M143.12,105.23v-17.6h8.48v15.82c0,2.93,1.31,4.56,4.03,4.56,2.93,0,4.71-2.2,4.71-5.39v-14.98h8.54v26.81h-8.17v-3.3h-.16c-1.94,2.62-4.29,4.09-8.01,4.09-6.18,0-9.43-4.03-9.43-10Z"></path>
  <path class="cls-2" d="M172.96,87.63h8.22v3.67h.16c1.99-2.88,4.56-4.45,8.27-4.45,5.87,0,9.32,4.19,9.32,10.16v17.44h-8.54v-15.71c0-2.83-1.41-4.77-4.19-4.77s-4.71,2.36-4.71,5.66v14.82h-8.54v-26.81Z"></path>
  <path class="cls-2" d="M201.61,101.04c0-8.38,4.82-14.19,11.73-14.19,3.77,0,5.92,1.57,7.49,3.82h.16v-13.67h8.54v37.44h-8.17v-3.61h-.1c-1.62,2.78-4.4,4.45-7.91,4.45-6.86,0-11.73-5.29-11.73-14.24ZM221.19,101.04c0-4.5-1.83-7.75-5.55-7.75-3.4,0-5.39,3.14-5.39,7.65s1.99,7.59,5.29,7.59c3.56,0,5.66-3.09,5.66-7.49Z"></path>
  <path class="cls-2" d="M233.6,87.63h8.17v4.19h.16c1.89-3.19,4.08-4.61,7.33-4.61.79,0,1.31.05,1.68.21v7.33h-.21c-5.24-.73-8.59,1.83-8.59,7.65v12.04h-8.54v-26.81Z"></path>
  <path class="cls-2" d="M255.07,116.65h2.93c2.51,0,3.51-1,3.51-2.83,0-1.15-.52-2.72-1.62-5.55l-7.91-20.63h9.01l3.61,11.42c.84,2.62,1.68,6.18,1.68,6.18h.1s.73-3.56,1.57-6.18l3.51-11.42h8.54l-9.27,27.18c-2.15,6.28-4.71,8.48-10.11,8.48h-5.55v-6.65Z"></path>
  <path class="cls-2" d="M72.69,140.75h1.67c.12,1.83,1.24,2.94,3.5,2.94,1.7,0,2.76-.88,2.76-2.28,0-1.26-.91-1.72-3.06-2.51-1.87-.69-3.27-1.45-3.27-3.4s1.54-3.3,4.06-3.3c3.01,0,4.33,1.69,4.46,3.65h-1.59c-.12-1.37-1.09-2.38-2.91-2.38-1.52,0-2.39.74-2.39,1.95,0,1.06.76,1.5,2.63,2.2,2.16.81,3.78,1.52,3.78,3.77,0,2.08-1.77,3.62-4.49,3.62-3.47,0-5.1-1.95-5.15-4.24Z"></path>
  <path class="cls-2" d="M83.7,141.13c0-2.92,1.92-5.48,4.86-5.48,2.35,0,3.45,1.54,3.45,3.65,0,.43-.05.89-.12,1.35h-6.67c-.02.16-.02.33-.02.5,0,1.67.81,2.61,2.39,2.61,1.09,0,2.03-.51,2.44-1.57h1.5c-.64,1.85-2.2,2.79-4.03,2.79-2.54,0-3.82-1.69-3.82-3.85ZM85.4,139.58h5.05c.26-1.6-.36-2.78-2.01-2.78s-2.63,1.29-3.04,2.78Z"></path>
  <path class="cls-2" d="M93.05,141.28c0-3.07,1.92-5.63,4.87-5.63,2.28,0,3.32,1.42,3.37,3.11h-1.47c-.02-1.11-.66-1.88-2.03-1.88-2.1,0-3.22,2.28-3.22,4.46,0,1.5.71,2.43,2.18,2.43,1.29,0,2.26-.76,2.68-2.16h1.49c-.56,2.2-2.15,3.39-4.18,3.39-2.35,0-3.68-1.52-3.68-3.7Z"></path>
  <path class="cls-2" d="M102.45,141.82l1.17-5.98h1.49l-1.17,5.96c-.18.99.05,1.88,1.47,1.88s2.41-.99,2.68-2.28l1.09-5.57h1.52l-1.75,8.89h-1.45l.23-1.27h-.03c-.66.91-1.6,1.49-2.77,1.49-1.85,0-2.82-1.22-2.46-3.12Z"></path>
  <path class="cls-2" d="M112.85,135.86h1.47l-.31,1.57h.05c.61-1.02,1.5-1.67,2.64-1.67.28,0,.48.03.56.07l-.18,1.47h-.07c-.15-.05-.31-.1-.61-.1-1.32,0-2.46.86-2.81,2.61l-.97,4.92h-1.5l1.73-8.87Z"></path>
  <path class="cls-2" d="M117.24,141.13c0-2.92,1.92-5.48,4.86-5.48,2.35,0,3.45,1.54,3.45,3.65,0,.43-.05.89-.12,1.35h-6.67c-.02.16-.02.33-.02.5,0,1.67.81,2.61,2.39,2.61,1.09,0,2.03-.51,2.44-1.57h1.5c-.64,1.85-2.2,2.79-4.03,2.79-2.54,0-3.82-1.69-3.82-3.85ZM118.94,139.58h5.05c.26-1.6-.36-2.78-2.01-2.78s-2.63,1.29-3.04,2.78Z"></path>
  <path class="cls-2" d="M133.06,132.44h1.5l-.63,3.24c-.08.43-.2.96-.3,1.35h.03c.74-.89,1.68-1.39,2.79-1.39,2.01,0,3.17,1.45,3.17,3.67,0,2.99-1.62,5.67-4.36,5.67-1.44,0-2.36-.64-2.81-1.7h-.07l-.26,1.45h-1.47l2.39-12.29ZM138.08,139.33c0-1.49-.71-2.43-2.03-2.43-2.08,0-3.2,2.08-3.2,4.11,0,1.55.73,2.76,2.23,2.76,1.95,0,3.01-2.4,3.01-4.44Z"></path>
  <path class="cls-2" d="M139.22,147.59l.26-1.24h.07c.17.1.48.18.89.18.58,0,1.01-.28,1.47-1.11,0-.03.56-1.04.54-1.14l-1.65-8.42h1.55l.86,4.84c.18.99.3,2.48.3,2.48h.05s.54-1.32,1.11-2.35l2.73-4.97h1.65l-5.6,9.7c-1.07,1.87-1.85,2.26-2.96,2.26-.5,0-.97-.08-1.27-.23Z"></path>
  <path class="cls-2" d="M155.4,132.44h4.08c3.12,0,4.74,2.1,4.74,4.91,0,4.53-2.4,7.38-6.74,7.38h-4.48l2.39-12.29ZM157.62,143.29c3.49,0,4.94-2.58,4.94-5.93,0-2.07-1.01-3.52-3.3-3.52h-2.43l-1.87,9.45h2.66Z"></path>
  <path class="cls-2" d="M165.1,141.13c0-2.92,1.92-5.48,4.86-5.48,2.35,0,3.45,1.54,3.45,3.65,0,.43-.05.89-.12,1.35h-6.67c-.02.16-.02.33-.02.5,0,1.67.81,2.61,2.39,2.61,1.09,0,2.03-.51,2.44-1.57h1.5c-.64,1.85-2.2,2.79-4.03,2.79-2.54,0-3.82-1.69-3.82-3.85ZM166.8,139.58h5.05c.26-1.6-.36-2.78-2.01-2.78s-2.63,1.29-3.04,2.78Z"></path>
  <path class="cls-2" d="M174.13,142.02h1.54c.12,1.31,1.02,1.75,2.36,1.75,1.4,0,1.97-.69,1.97-1.5,0-.71-.59-1.11-2-1.54-1.65-.51-2.77-1.01-2.81-2.53-.03-1.45,1.22-2.56,3.27-2.56,2.28,0,3.4,1.07,3.45,2.59h-1.52c-.02-.96-.66-1.44-1.93-1.44s-1.73.5-1.73,1.24.69,1.04,2.08,1.47c1.45.46,2.71,1.07,2.74,2.68.02,1.67-1.4,2.77-3.55,2.77-2.59,0-3.75-1.19-3.86-2.94Z"></path>
  <path class="cls-2" d="M184.58,135.86h1.5l-1.73,8.87h-1.5l1.73-8.87ZM185.21,132.44h1.57l-.35,1.78h-1.57l.35-1.78Z"></path>
  <path class="cls-2" d="M186.35,145.36h1.44c.12.79.78,1.35,2.13,1.35s2.3-.78,2.54-2.08l.1-.61s.15-.64.25-1.04h-.02c-.68.79-1.5,1.35-2.66,1.35-2.01,0-3.2-1.59-3.2-3.58,0-2.97,1.95-5.1,4.3-5.1,1.34,0,2.23.63,2.69,1.65l.28-1.45h1.47l-1.73,8.84c-.46,2.31-1.97,3.17-4.05,3.17-2.21,0-3.45-1.06-3.53-2.49ZM193.55,139.17c0-1.39-.76-2.28-2.28-2.28-1.83,0-2.84,1.97-2.84,3.95,0,1.39.66,2.31,2.08,2.31,2.11,0,3.04-2.25,3.04-3.98Z"></path>
  <path class="cls-2" d="M197.84,135.86h1.49l-.28,1.32h.03c.66-.94,1.7-1.54,2.89-1.54,1.73,0,2.92,1.17,2.53,3.14l-1.19,5.95h-1.5l1.17-5.91c.25-1.21-.26-1.92-1.55-1.92s-2.44.84-2.73,2.25l-1.09,5.58h-1.5l1.73-8.87Z"></path>
  <path class="cls-4" d="M153.13,67.85c-4.28,1.32-8.89,1.72-13.61,1.03-8.75-1.29-16.15-6.11-20.91-12.81-1.93-2.72-3.43-5.73-4.42-8.95.18,0,.37.02.56.02.77,0,1.53-.1,2.25-.28,1.19,3.62,3.1,6.95,5.58,9.8,4.32,4.97,10.35,8.48,17.35,9.5,4.16.61,8.23.28,12.03-.83.28.9.67,1.74,1.17,2.52Z"></path>
  <path class="cls-1" d="M161.61,70.64c-.4,0-.81-.03-1.21-.09-4.5-.66-7.63-4.86-6.97-9.37.15-1.02.49-2,1.01-2.9.59-1.03.46-2.32-.32-3.2-.53-.6-1.29-.93-2.06-.93-.36,0-.73.07-1.08.22-2.2.94-4.52,1.41-6.89,1.41-.87,0-1.75-.06-2.61-.19-7.36-1.08-13.33-6.7-14.86-13.99-.24-1.16-1.2-2.03-2.38-2.17-.1-.01-.21-.02-.31-.02-1.06,0-2.04.61-2.5,1.59-1.21,2.6-3.82,4.29-6.66,4.29-.36,0-.72-.03-1.08-.08-1.94-.28-3.65-1.31-4.82-2.88-1.17-1.57-1.66-3.51-1.37-5.45.53-3.58,3.64-6.27,7.25-6.27.36,0,.72.03,1.08.08,1.94.28,3.65,1.31,4.82,2.88.31.41.57.86.78,1.31.45.98,1.43,1.6,2.5,1.6.1,0,.21,0,.31-.02,1.18-.13,2.14-1.01,2.38-2.17,1.73-8.21,9.06-14.17,17.42-14.17.87,0,1.75.06,2.61.19.87.13,1.73.32,2.56.57.26.08.53.12.79.12.9,0,1.77-.45,2.29-1.23.67-1.01.61-2.33-.16-3.27-.1-.13-.21-.26-.3-.39-1.61-2.16-2.28-4.82-1.89-7.49.72-4.92,5.01-8.63,9.97-8.63.49,0,.99.04,1.48.11,2.67.39,5.02,1.8,6.63,3.96s2.28,4.82,1.89,7.49c-.72,4.92-5.01,8.63-9.97,8.63-.49,0-.99-.04-1.48-.11-.14-.02-.27-.03-.41-.03-1.05,0-2.06.59-2.52,1.56-.52,1.09-.31,2.39.58,3.2.82.75,1.58,1.6,2.25,2.5,2.84,3.82,4.03,8.52,3.33,13.23-.5,3.41-1.99,6.6-4.31,9.21-.79.89-.92,2.17-.33,3.2.5.87,1.41,1.38,2.38,1.38.18,0,.36-.02.55-.05.53-.11,1.06-.16,1.6-.16.4,0,.81.03,1.21.09,4.5.66,7.63,4.86,6.97,9.37-.59,4.02-4.1,7.06-8.16,7.06Z"></path>
  <circle class="cls-2" cx="144.06" cy="37.96" r="15.63"></circle>
  <path class="cls-3" d="M137,29.71h4.11l4.89,8.28c.25.46,1.13,2.1,1.13,2.1h.05s-.05-1.98-.05-2.56v-7.82h3.99v16.5h-4.11l-4.84-8.17c-.28-.44-1.18-2.21-1.18-2.21h-.05s.05,2.12.05,2.7v7.68h-3.99v-16.5Z"></path>
</svg>
