<?xml version="1.0" encoding="utf-8"?>
<svg width="9.5in" height="9.5in" viewBox="-60 25 561 615" color-interpolation-filters="sRGB" class="st13" version="1.1" id="svg16" xmlns="http://www.w3.org/2000/svg">
  <style type="text/css" id="style1">
	
    /* latin */
		.st2 {fill:#d1d5db;fill-opacity:0.75;stroke:#121a36;stroke-linecap:butt;stroke-width:1.75781}
		.st3 {fill:none;stroke:#121a36;stroke-linecap:butt;stroke-opacity:0.85;stroke-width:25.1151}
		.st4 {fill:#6b7280;fill-opacity:0.6;stroke:none;stroke-linecap:butt;stroke-width:0.292969}
		.st5 {fill:url(#grad0-15);stroke:none;stroke-linecap:butt;stroke-width:0.131836}
		.st6 {fill:#08dc5a;fill-opacity:0.059;stroke:none;stroke-linecap:butt;stroke-width:0.131836}
		.st7 {fill:#121a36;stroke:none;stroke-linecap:butt;stroke-width:0.131836}
		.st8 {fill:none;stroke:none;stroke-linecap:round;stroke-linejoin:round;stroke-width:0.75}
		.st9 {fill:#f2f2f2;font-family:Russo One;font-size:50em}
		.st10 {font-size:0.8em}
		.st11 {fill:#f2f2f2;font-family:Russo One;font-size:16.6667em}
		.st12 {font-size:0.799999em}
		.st13 {fill:none;fill-rule:evenodd;font-size:12px;overflow:visible;stroke-linecap:square;stroke-miterlimit:3}

		.st2 {fill:#e3e3e3;stroke:none;stroke-linecap:butt;stroke-width:25.5}
		.st3 {fill:#ffffff;stroke:none;stroke-linecap:butt;stroke-width:25.5}
		.st4 {fill:#002567;stroke:none;stroke-linecap:butt;stroke-width:25.5}
		.st5 {fill:#78eb7b;stroke:none;stroke-linecap:butt;stroke-width:25.5}
		.st6 {fill:#c9f7ca;stroke:none;stroke-linecap:butt;stroke-width:25.5}
		.st8 {fill:#e3e3e3}
	
	</style>
  <g xmlns="http://www.w3.org/2000/svg" id="group10-4" transform="matrix(1, 0, 0, 1, -61.697021, -46.053448)">
    <title id="title4">Sheet.10</title>
    <g id="shape11-5" transform="translate(12.75,-10.2)">
      <title id="title5">Sheet.11</title>
      <path d="m 0,179.1 v 193.8 c 2.55,132.6 84.15,249.9 209.1,293.25 l 28.05,10.2 c 17.85,7.65 40.8,7.65 58.65,0 l 28.05,-10.2 C 448.8,622.8 532.95,505.5 532.95,372.9 V 179.1 c 0,-15.3 -10.2,-30.6 -22.95,-35.7 C 433.5,110.25 349.35,94.95 265.2,94.95 181.05,94.95 99.45,110.25 20.4,143.4 10.2,148.5 0,163.8 0,179.1 Z" class="st2" id="path5"/>
    </g>
    <g id="shape12-7" transform="translate(12.75,-12.75)">
      <title id="title6">Sheet.12</title>
      <path d="M 267.75,97.5 C 183.6,97.5 102,112.8 22.95,145.95 10.2,151.05 0,166.35 0,181.65 v 193.8 c 2.55,132.6 84.15,249.9 209.1,293.25 l 28.05,10.2 c 10.2,2.55 20.4,5.1 30.6,5.1 z" class="st3" id="path6"/>
    </g>
    <g id="shape13-9">
      <title id="title7">Sheet.13</title>
      <path d="M 280.5 684 C 267.75 684 257.55 681.45 247.35 678.9 L 219.3 668.7 C 91.8 622.8 2.55 500.4 2.55 365.25 L 2.724 168.9 C 0.733 148.5 12.75 128.1 30.6 120.45 C 112.2 87.3 193.8 72 280.5 72 C 367.2 72 448.8 87.3 530.4 120.45 C 548.25 128.1 561 148.5 561 168.9 L 561 362.7 C 558.45 500.4 471.75 622.8 341.7 666.15 L 313.65 676.35 C 303.45 681.45 293.25 684 280.5 684 Z M 25.5 168.9 L 25.5 362.7 C 28.05 487.65 107.1 602.4 226.95 643.2 L 255 653.4 C 270.3 658.5 288.15 658.5 306 653.4 L 334.05 643.2 C 453.9 602.4 532.95 487.65 535.5 362.7 L 535.5 168.9 C 535.5 158.7 530.4 148.5 520.2 145.95 C 443.7 112.8 362.1 97.5 280.5 97.5 C 198.9 97.5 117.3 112.8 40.8 143.4 C 30.6 148.5 25.5 158.7 25.5 168.9 Z" class="st4" id="path7" style="fill-opacity: 1;"/>
    </g>
    <g id="group104-11" transform="translate(110,-150)">
      <title id="title9">Sheet.104</title>
      <g id="shape101-12" transform="translate(53.1935,-34.1417)">
        <title id="title10">Sheet.101</title>
        <g id="group9-16" transform="matrix(0.998197, 0, 0, 0.944646, -20.92906, 43.653919)" style="">
          <title id="bx:title-1">Sheet.9</title>
          <g id="shape10-17" transform="translate(19.7263,-31.0379)">
            <title id="bx:title-2">Sheet.10</title>
            <path d="M 0,668.48 A 15.7814,15.5193 -180 0 0 15.78,684 h 205.15 a 15.7814,15.5193 -180 0 0 15.79,-15.52 V 389.14 A 15.7814,15.5193 -180 0 0 220.93,373.62 H 15.78 A 15.7814,15.5193 -180 0 0 0,389.14 Z" class="st8" id="path10" style="fill: rgb(30, 41, 59); fill-rule: evenodd; font-size: 12px; line-height: 19.2px; stroke: rgb(51, 65, 85); stroke-miterlimit: 3; stroke-width: 3.06px; stroke-linecap: butt; stroke-linejoin: miter;"/>
          </g>
          <g id="shape11-19" transform="translate(39.4527,-263.822)">
            <title id="bx:title-3">Sheet.11</title>
            <path d="M 0,676.24 A 7.89072,7.75966 -180 0 0 7.89,684 h 181.48 a 7.89072,7.75966 -180 0 0 7.89,-7.76 V 645.2 a 7.89072,7.75966 -180 0 0 -7.89,-7.76 H 7.89 A 7.89072,7.75966 -180 0 0 0,645.2 Z" class="st9" id="path11" style="fill: rgb(16, 185, 129); fill-opacity: 1; fill-rule: evenodd; font-size: 12px; line-height: 19.2px; stroke-miterlimit: 3; stroke-width: 3.06px; font-family: &quot;system-ui&quot;, -apple-system, Inter, &quot;Roboto Flex&quot;, Roboto, &quot;Noto Sans&quot;, &quot;Helvetica Neue&quot;, Arial, sans-serif;"/>
          </g>
          <g id="shape12-21" transform="translate(39.4527,-197.867)">
            <title id="bx:title-4">Sheet.12</title>
            <path d="M 0,676.24 A 7.89072,7.75966 -180 0 0 7.89,684 h 181.48 a 7.89072,7.75966 -180 0 0 7.89,-7.76 V 645.2 a 7.89072,7.75966 -180 0 0 -7.89,-7.76 H 7.89 A 7.89072,7.75966 -180 0 0 0,645.2 Z" class="st10" id="path12" style="fill: rgb(52, 211, 153); fill-rule: evenodd; font-size: 12px; line-height: 19.2px; stroke-miterlimit: 3; stroke-width: 3.06px;"/>
          </g>
          <g id="shape13-23" transform="translate(39.4527,-131.911)">
            <title id="title13">Sheet.13</title>
            <path d="M 0,676.24 A 7.89072,7.75966 -180 0 0 7.89,684 h 181.48 a 7.89072,7.75966 -180 0 0 7.89,-7.76 V 645.2 a 7.89072,7.75966 -180 0 0 -7.89,-7.76 H 7.89 A 7.89072,7.75966 -180 0 0 0,645.2 Z" class="st9" id="path13" style="fill: rgb(16, 185, 129); fill-opacity: 1; fill-rule: evenodd; font-size: 12px; line-height: 19.2px; stroke-miterlimit: 3; stroke-width: 3.06px; font-family: &quot;system-ui&quot;, -apple-system, Inter, &quot;Roboto Flex&quot;, Roboto, &quot;Noto Sans&quot;, &quot;Helvetica Neue&quot;, Arial, sans-serif;"/>
          </g>
          <g id="shape14-25" transform="translate(39.4527,-65.9556)">
            <title id="title14">Sheet.14</title>
            <path d="M 0,676.24 A 7.89072,7.75966 -180 0 0 7.89,684 h 181.48 a 7.89072,7.75966 -180 0 0 7.89,-7.76 V 645.2 a 7.89072,7.75966 -180 0 0 -7.89,-7.76 H 7.89 A 7.89072,7.75966 -180 0 0 0,645.2 Z" class="st10" id="path14" style="fill: rgb(52, 211, 153); fill-rule: evenodd; font-size: 12px; line-height: 19.2px; stroke-miterlimit: 3; stroke-width: 3.06px;"/>
          </g>
          <g id="shape15-27" transform="translate(53.2611,-281.281)">
            <title id="title15">Sheet.15</title>
            <ellipse cx="5.9179001" cy="678.17999" rx="5.9179001" ry="5.8196101" class="st11" id="ellipse15" style="fill: rgb(34, 197, 94); fill-rule: evenodd; font-family: &quot;Segoe UI&quot;, SegoeUI, system-ui, sans-serif; font-size: 12px; line-height: 19.2px; stroke-miterlimit: 3; stroke-width: 3.06px;"/>
          </g>
          <g id="shape16-29" transform="translate(72.9875,-281.281)">
            <title id="title16">Sheet.16</title>
            <ellipse cx="5.9179001" cy="678.17999" rx="5.9179001" ry="5.8196101" class="st11" id="ellipse16" style="fill: rgb(34, 197, 94); fill-rule: evenodd; font-family: &quot;Segoe UI&quot;, SegoeUI, system-ui, sans-serif; font-size: 12px; line-height: 19.2px; stroke-miterlimit: 3; stroke-width: 3.06px;"/>
          </g>
          <g id="shape17-31" transform="translate(53.2611,-215.326)">
            <title id="title17">Sheet.17</title>
            <ellipse cx="5.9179001" cy="678.17999" rx="5.9179001" ry="5.8196101" class="st11" id="ellipse17" style="fill: rgb(34, 197, 94); fill-rule: evenodd; font-family: &quot;Segoe UI&quot;, SegoeUI, system-ui, sans-serif; font-size: 12px; line-height: 19.2px; stroke-miterlimit: 3; stroke-width: 3.06px;"/>
          </g>
          <g id="shape18-33" transform="translate(72.9875,-215.326)">
            <title id="title18">Sheet.18</title>
            <ellipse cx="5.9179001" cy="678.17999" rx="5.9179001" ry="5.8196101" class="st12" id="ellipse18" style="fill: rgb(245, 158, 11); fill-rule: evenodd; font-size: 12px; line-height: 19.2px; stroke-miterlimit: 3; stroke-width: 3.06px;"/>
          </g>
          <g id="shape19-35" transform="translate(53.2611,-149.37)">
            <title id="title19">Sheet.19</title>
            <ellipse cx="5.9179001" cy="678.17999" rx="5.9179001" ry="5.8196101" class="st11" id="ellipse19" style="fill: rgb(34, 197, 94); fill-rule: evenodd; font-family: &quot;Segoe UI&quot;, SegoeUI, system-ui, sans-serif; font-size: 12px; line-height: 19.2px; stroke-miterlimit: 3; stroke-width: 3.06px;"/>
          </g>
          <g id="shape20-37" transform="translate(72.9875,-149.37)">
            <title id="title20">Sheet.20</title>
            <ellipse cx="5.9179001" cy="678.17999" rx="5.9179001" ry="5.8196101" class="st11" id="ellipse20" style="fill: rgb(34, 197, 94); fill-rule: evenodd; font-family: &quot;Segoe UI&quot;, SegoeUI, system-ui, sans-serif; font-size: 12px; line-height: 19.2px; stroke-miterlimit: 3; stroke-width: 3.06px;"/>
          </g>
          <g id="shape21-39" transform="translate(53.2611,-83.4144)">
            <title id="title21">Sheet.21</title>
            <ellipse cx="5.9179001" cy="678.17999" rx="5.9179001" ry="5.8196101" class="st11" id="ellipse21" style="fill: rgb(34, 197, 94); fill-rule: evenodd; font-family: &quot;Segoe UI&quot;, SegoeUI, system-ui, sans-serif; font-size: 12px; line-height: 19.2px; stroke-miterlimit: 3; stroke-width: 3.06px;"/>
          </g>
          <g id="shape22-41" transform="translate(72.9875,-83.4144)">
            <title id="title22">Sheet.22</title>
            <ellipse cx="5.9179001" cy="678.17999" rx="5.9179001" ry="5.8196101" class="st11" id="ellipse22" style="fill: rgb(34, 197, 94); fill-rule: evenodd; font-family: &quot;Segoe UI&quot;, SegoeUI, system-ui, sans-serif; font-size: 12px; line-height: 19.2px; stroke-miterlimit: 3; stroke-width: 3.06px;"/>
          </g>
          <g id="group23-43" transform="translate(177.537,-81.4745)">
            <title id="title23">Sheet.23</title>
            <g id="shape24-44" transform="translate(0,-221.145)">
              <title id="title24">Sheet.24</title>
              <path d="M 0,684 H 39.45" class="st13" id="path24" style="stroke: rgb(100, 116, 139); stroke-linecap: butt; stroke-opacity: 0.6; stroke-width: 1.53px;"/>
            </g>
            <g id="shape25-47" transform="translate(0,-209.506)">
              <title id="title25">Sheet.25</title>
              <path d="M 0,684 H 39.45" class="st13" id="path25" style="stroke: rgb(100, 116, 139); stroke-linecap: butt; stroke-opacity: 0.6; stroke-width: 1.53px;"/>
            </g>
            <g id="shape26-50" transform="translate(0,-197.867)">
              <title id="title26">Sheet.26</title>
              <path d="M 0,684 H 39.45" class="st13" id="path26" style="stroke: rgb(100, 116, 139); stroke-linecap: butt; stroke-opacity: 0.6; stroke-width: 1.53px;"/>
            </g>
            <g id="shape27-53" transform="translate(0,-155.19)">
              <title id="title27">Sheet.27</title>
              <path d="M 0,684 H 39.45" class="st13" id="path27" style="stroke: rgb(100, 116, 139); stroke-linecap: butt; stroke-opacity: 0.6; stroke-width: 1.53px;"/>
            </g>
            <g id="shape28-56" transform="translate(0,-143.55)">
              <title id="title28">Sheet.28</title>
              <path d="M 0,684 H 39.45" class="st13" id="path28" style="stroke: rgb(100, 116, 139); stroke-linecap: butt; stroke-opacity: 0.6; stroke-width: 1.53px;"/>
            </g>
            <g id="shape29-59" transform="translate(0,-131.911)">
              <title id="title29">Sheet.29</title>
              <path d="M 0,684 H 39.45" class="st13" id="path29" style="stroke: rgb(100, 116, 139); stroke-linecap: butt; stroke-opacity: 0.6; stroke-width: 1.53px;"/>
            </g>
            <g id="shape30-62" transform="translate(0,-89.234)">
              <title id="title30">Sheet.30</title>
              <path d="M 0,684 H 39.45" class="st13" id="path30" style="stroke: rgb(100, 116, 139); stroke-linecap: butt; stroke-opacity: 0.6; stroke-width: 1.53px;"/>
            </g>
            <g id="shape31-65" transform="translate(0,-77.5948)">
              <title id="title31">Sheet.31</title>
              <path d="M 0,684 H 39.45" class="st13" id="path31" style="stroke: rgb(100, 116, 139); stroke-linecap: butt; stroke-opacity: 0.6; stroke-width: 1.53px;"/>
            </g>
            <g id="shape32-68" transform="translate(0,-65.9556)">
              <title id="title32">Sheet.32</title>
              <path d="M 0,684 H 39.45" class="st13" id="path32" style="stroke: rgb(100, 116, 139); stroke-linecap: butt; stroke-opacity: 0.6; stroke-width: 1.53px;"/>
            </g>
            <g id="shape33-71" transform="translate(0,-23.2784)">
              <title id="title33">Sheet.33</title>
              <path d="M 0,684 H 39.45" class="st13" id="path33" style="stroke: rgb(100, 116, 139); stroke-linecap: butt; stroke-opacity: 0.6; stroke-width: 1.53px;"/>
            </g>
            <g id="shape34-74" transform="translate(0,-11.6392)">
              <title id="title34">Sheet.34</title>
              <path d="M 0,684 H 39.45" class="st13" id="path34" style="stroke: rgb(100, 116, 139); stroke-linecap: butt; stroke-opacity: 0.6; stroke-width: 1.53px;"/>
            </g>
            <g id="shape35-77">
              <title id="title35">Sheet.35</title>
              <path d="M 0,684 H 39.45" class="st13" id="path35" style="stroke: rgb(100, 116, 139); stroke-linecap: butt; stroke-opacity: 0.6; stroke-width: 1.53px;"/>
            </g>
          </g>
          <g id="shape36-80">
            <title id="title36">Sheet.36</title>
            <path d="M 0,676.24 A 7.89072,7.75966 -180 0 0 7.89,684 h 260.39 a 7.89072,7.75966 -180 0 0 7.89,-7.76 v -15.52 a 7.89072,7.75966 -180 0 0 -7.89,-7.76 H 7.89 A 7.89072,7.75966 -180 0 0 0,660.72 Z" class="st14" id="path36" style="fill: rgb(71, 85, 105); fill-rule: evenodd; font-size: 12px; line-height: 19.2px; stroke: rgb(51, 65, 85); stroke-miterlimit: 3; stroke-width: 12.529px;"/>
          </g>
        </g>
      </g>
      <g id="shape102-16" transform="translate(53.1935,-34.1417)">
        <title id="title11">Sheet.102</title>
      </g>
      <g id="shape103-18">
        <title id="title12">Sheet.103</title>
      </g>
    </g>
  </g>
</svg>